HIERARCHY
ROOT Hips
{
  OFFSET 0.382225 96.6805 0.598322
  CHANNELS 6 Xposition Yposition Zposition Zrotation Xrotation Yrotation
  JOINT Spine
  {
    OFFSET 10.8089 -0.851416 0
    CHANNELS 3 Zrotation Xrotation Yrotation
    JOINT Spine1
    {
      OFFSET 18.8753 3.80116 0
      CHANNELS 3 Zrotation Xrotation Yrotation
      JOINT Spine2
      {
        OFFSET 13.4073 0.420477 0
        CHANNELS 3 Zrotation Xrotation Yrotation
        JOINT LeftShoulder
        {
          OFFSET 11.8837 -2.73209 -3.78198
          CHANNELS 3 Zrotation Xrotation Yrotation
          JOINT LeftArm
          {
            OFFSET 15.7849 0 -2.35849e-005
            CHANNELS 3 Zrotation Xrotation Yrotation
            JOINT LeftForeArm
            {
              OFFSET 30.3399 0 0
              CHANNELS 3 Zrotation Xrotation Yrotation
              JOINT LeftHand
              {
                OFFSET 26.9751 0 2.45913e-005
                CHANNELS 3 Zrotation Xrotation Yrotation
                End Site
                {
                  OFFSET 8 0 0
                }
              }
            }
          }
        }
        JOINT RightShoulder
        {
          OFFSET 11.8838 -2.7321 3.782
          CHANNELS 3 Zrotation Xrotation Yrotation
          JOINT RightArm
          {
            OFFSET -15.7848 0 -1.07056e-005
            CHANNELS 3 Zrotation Xrotation Yrotation
            JOINT RightForeArm
            {
              OFFSET -30.34 1.02096e-005 -2.53607e-005
              CHANNELS 3 Zrotation Xrotation Yrotation
              JOINT RightHand
              {
                OFFSET -26.9752 2.07668e-005 0
                CHANNELS 3 Zrotation Xrotation Yrotation
                End Site
                {
                  OFFSET -8 0 0
                }
              }
            }
          }
        }
        JOINT Neck
        {
          OFFSET 16.5588 -0.355318 0
          CHANNELS 3 Zrotation Xrotation Yrotation
          JOINT Head
          {
            OFFSET 9.28361 0.364157 0
            CHANNELS 3 Zrotation Xrotation Yrotation
            End Site
            {
              OFFSET 0 0 0
            }
          }
        }
      }
    }
  }
  JOINT LeftUpLeg
  {
    OFFSET -1.44883 -0.531424 -9.00581
    CHANNELS 3 Zrotation Xrotation Yrotation
    JOINT LeftLeg
    {
      OFFSET -42.572 0.0788889 -0.011964
      CHANNELS 3 Zrotation Xrotation Yrotation
      JOINT LeftFoot
      {
        OFFSET -40.1967 0 0
        CHANNELS 3 Zrotation Xrotation Yrotation
				JOINT LeftToe
        {
          OFFSET -10.4538 -16.5779 0.0801563
          CHANNELS 3 Zrotation Xrotation Yrotation
          End Site
          {
            OFFSET -1.0 -1.0 0.0
          }
        }
      }
    }
  }
  JOINT RightUpLeg
  {
    OFFSET -1.44865 -0.531427 9.0058
    CHANNELS 3 Zrotation Xrotation Yrotation
    JOINT RightLeg
    {
      OFFSET 42.5723 -3.24776e-005 0
      CHANNELS 3 Zrotation Xrotation Yrotation
      JOINT RightFoot
      {
        OFFSET 40.1968 0 -1.14003e-005
        CHANNELS 3 Zrotation Xrotation Yrotation
				JOINT RightToe
        {
          OFFSET 10.4538 16.5778 -0.0801573
          CHANNELS 3 Zrotation Xrotation Yrotation
          End Site
          {
            OFFSET -1.0 -1.0 0.0
          }
        }
      }
    }
  }
}
MOTION
Frames:	17
Frame Time:	0.0333333
-162.881 96.0005 -9.56659 -94.0607 -84.8375 173.673 -8.38444 -1.96327 2.4942 11.8182 0.105295 0.21847 2.7794 1.93418e-006 1.65929e-005 -2.99434 20.0635 84.4683 -18.6102 -0.308004 -8.76743 -0.155646 2.20796 10.7801 -103.25 -82.0614 -114.619 179.069 16.1473 85.7172 -29.5138 -13.8532 -4.02128 0.000958713 1.19709 0.200006 7.02256 -88.2784 9.49411 -23.508 4.63459e-006 -5.90926e-006 16.5034 36.5112 1.04603 0.311455 19.2212 -6.96538 -6.34107 -5.74197 1.9446 4.54066 4.14912 2.45609 -90 0 0 -174.677 12.0843 -13.5962 -8.13788 -5.74609 1.6963 4.10139 1.75485 7.22219 -90 0 0
-162.941 96.0269 -9.3975 -82.5725 -85.1341 -174.725 -6.58504 -2.02032 2.13143 11.2472 0.130701 0.274672 2.7794 1.93418e-006 1.65929e-005 -2.94763 20.4452 84.2287 -18.8381 0.202327 -8.75353 -0.171506 2.29036 10.7902 -101.138 -81.8721 -112.386 179.047 16.2266 85.7381 -29.5958 -13.5555 -4.32999 0.000134291 1.35439 0.204572 4.69594 -88.2345 7.20054 -23.508 4.63459e-006 -5.90926e-006 17.1846 36.7087 0.242778 1.32825 19.0386 -7.14727 -6.36967 -5.74505 1.93837 4.6104 4.1047 2.40926 -90 0 0 -173.96 12.2609 -13.3907 -7.96056 -5.74293 1.72343 4.12246 1.93972 7.12905 -90 0 0
-162.943 95.9646 -9.22451 -97.0759 -85.1774 170.609 -8.25329 -1.85223 2.29385 11.5888 0.115559 0.241015 2.7794 1.93418e-006 1.65929e-005 -2.9093 20.7159 84.0431 -19.1788 0.141668 -8.68316 -0.155253 2.20781 10.7801 -99.7255 -82.2404 -110.806 179.122 16.3167 85.4728 -29.3441 -13.8132 -4.30644 0.000791357 1.13971 0.205914 9.36878 -87.9684 11.8572 -23.508 4.63459e-006 -5.90926e-006 18.6647 36.6905 -0.810825 -0.0832814 19.1707 -6.9422 -6.35653 -5.74582 1.94352 4.72646 3.91056 2.5375 -90 0 0 -175.16 12.2042 -13.6398 -8.25768 -5.74154 1.67802 4.46061 2.04872 7.19902 -90 0 0
-163.011 95.9444 -9.07454 -98.328 -85.5005 169.368 -8.17338 -1.87359 2.2689 11.53 0.118193 0.246804 2.7794 1.93418e-006 1.65929e-005 -2.87551 20.8596 83.894 -19.4492 0.154268 -8.56027 -0.147522 2.16893 10.7754 -100.253 -82.4298 -111.162 179.115 16.5571 85.3663 -29.3101 -13.9526 -4.27956 -0.000126121 1.37347 0.206219 10.2002 -88.2374 12.8322 -23.508 4.63459e-006 -5.90926e-006 20.2209 36.5056 -2.06267 -0.116638 18.8057 -7.00394 -6.48752 -5.74607 1.92754 4.84548 3.9495 2.59436 -90 0 0 -175.323 12.3731 -13.6115 -8.3832 -5.74018 1.65853 4.64382 2.21401 7.20591 -90 0 0
-163.099 95.929 -8.91811 -99.4036 -85.8427 168.3 -8.02254 -2.00026 2.2887 11.482 0.120321 0.251531 2.7794 1.93418e-006 1.65929e-005 -2.86168 20.9837 83.8274 -19.6965 0.239386 -8.53218 -0.223432 2.55744 10.8231 -102.176 -82.2399 -113.166 179.088 16.6401 85.3986 -28.9915 -14.1171 -4.24932 -0.000102663 1.35423 0.205683 12.3593 -88.2144 14.9423 -23.508 4.63459e-006 -5.90926e-006 21.6911 36.0381 -3.15019 -0.137467 18.5568 -7.08284 -6.54452 -5.74577 1.92016 4.92464 3.80403 2.62949 -90 0 0 -175.483 12.6886 -13.586 -8.42218 -5.7389 1.65261 4.84776 2.26949 7.26699 -90 0 0
-163.2 95.9127 -8.75535 -100.156 -86.1298 167.626 -7.83895 -2.08656 2.19784 11.4611 0.121245 0.253584 2.7794 1.93418e-006 1.65929e-005 -2.88891 21.0509 83.923 -19.9186 0.0444181 -8.58884 -0.239948 2.64226 10.8336 -100.159 -82.1496 -111.121 178.986 16.8522 85.5759 -28.9524 -14.2299 -4.47297 0.000179674 1.26927 0.204574 15.6946 -88.1217 18.3443 -23.508 4.63459e-006 -5.90926e-006 22.7711 35.5094 -3.66966 -0.078982 18.2399 -7.2429 -6.728 -5.74505 1.89707 5.07785 3.8503 2.6889 -90 0 0 -175.707 12.916 -13.4558 -8.3518 -5.73768 1.66385 4.98134 2.3999 7.16553 -90 0 0
-163.338 95.9425 -8.61783 -83.2711 -86.6005 -175.271 -5.95153 -2.38711 1.86917 11.0555 0.139103 0.293596 2.7794 1.93418e-006 1.65929e-005 -2.91507 21.0143 84.0292 -19.7324 0.523115 -8.50472 -0.112315 1.9908 10.7537 -95.4021 -82.2325 -106.254 178.923 16.7391 85.8137 -28.7638 -14.167 -4.68481 -8.78491e-005 1.34331 0.203163 19.7527 -88.196 22.3022 -23.508 4.63459e-006 -5.90926e-006 22.8995 34.9443 -3.66127 1.14293 17.809 -7.59149 -6.84862 -5.74389 1.87879 5.15035 3.88531 2.67751 -90 0 0 -174.954 13.2123 -13.0979 -8.11098 -5.73648 1.70099 4.93422 2.57671 7.04482 -90 0 0
-163.412 95.938 -8.48126 -84.3952 -86.7323 -176.361 -5.90254 -2.42751 1.7764 11.1638 0.134377 0.282903 2.7794 1.93418e-006 1.65929e-005 -2.95447 21.0182 84.1831 -19.8481 0.604416 -8.472 -0.172946 2.30306 10.7917 -98.2617 -82.2063 -109.097 178.892 16.7025 85.9163 -28.5078 -14.2819 -4.80899 0.000313705 1.23171 0.201674 20.3 -87.9065 22.8804 -23.508 4.63459e-006 -5.90926e-006 22.8931 34.4208 -3.22835 1.00616 17.7025 -7.66397 -6.84557 -5.7423 1.87952 5.21781 3.86524 2.68124 -90 0 0 -175.19 13.1866 -13.0184 -8.11666 -5.73549 1.70031 5.06244 2.74933 7.07942 -90 0 0
-163.467 95.9344 -8.35395 -85.4404 -86.7434 -177.401 -5.80622 -2.4161 1.69063 11.3136 0.12778 0.268125 2.7794 1.93418e-006 1.65929e-005 -2.97638 20.8925 84.2818 -19.7725 0.702995 -8.30782 -0.202142 2.45324 10.8102 -100.337 -82.2293 -111.368 178.885 16.6186 85.9833 -28.3703 -14.1723 -4.85829 0.000446278 1.19709 0.200381 20.8934 -88.0057 23.5151 -23.508 4.63459e-006 -5.90926e-006 22.4199 34.3205 -2.66399 0.825221 17.5791 -7.67149 -6.7942 -5.7404 1.87902 5.2704 3.99647 2.62177 -90 0 0 -175.313 13.1943 -12.9769 -8.19202 -5.73464 1.68862 5.14477 2.75088 6.98166 -90 0 0
-163.525 95.9422 -8.25522 -86.2675 -86.7191 -178.203 -5.7266 -2.3913 1.60919 11.296 0.12855 0.269856 2.7794 1.93418e-006 1.65929e-005 -3.02996 21.2147 84.4464 -20.1521 0.921983 -8.25776 -0.115068 2.00846 10.7557 -95.8263 -82.5633 -106.704 178.964 15.4907 86.3934 -26.4426 -15.0259 -5.26337 0.000695384 1.13307 0.198749 23.9282 -86.8495 26.2569 -23.508 4.63459e-006 -5.90926e-006 22.1389 34.2122 -2.16339 0.725945 17.5875 -7.71218 -6.79521 -5.73824 1.878 5.32924 3.98237 2.49535 -90 0 0 -175.41 13.2255 -12.9181 -8.22348 -5.73385 1.68384 5.16565 2.71447 6.9471 -90 0 0
-163.511 95.8573 -8.17999 -112.27 -86.1197 155.618 -6.66441 -1.26745 2.06481 6.9357 0.304179 0.706618 2.7794 1.93418e-006 1.65929e-005 -3.23041 23.7613 84.7706 -24.3478 -2.19652 -9.4092 -0.139195 2.13373 10.7711 -103.011 -82.2345 -113.599 -179.677 5.93336 88.6698 -7.989 -24.3873 -7.06752 0.00595771 -0.484341 0.157385 28.5681 -75.6264 29.4848 -23.508 4.63459e-006 -5.90926e-006 30.0659 32.4777 -3.41646 -1.11674 17.7596 -7.48922 -6.89057 -5.73454 1.87672 5.48865 4.10467 2.727 -90 0 0 -176.979 12.9994 -13.194 -8.47538 -5.73326 1.64563 5.52184 2.64607 7.2012 -90 0 0
-163.526 95.8585 -8.10624 -112.313 -86.1017 155.598 -6.56961 -1.13847 1.83919 7.15346 0.296204 0.684492 2.7794 1.93418e-006 1.65929e-005 -3.28303 23.4332 85.0015 -24.2031 -2.16886 -9.18767 -0.128522 2.08022 10.7645 -101.218 -82.3937 -111.723 -179.571 5.36067 88.7508 -7.00392 -24.3716 -7.25783 0.00823095 -1.60264 0.128494 26.9784 -74.5332 27.7527 -23.508 4.63459e-006 -5.90926e-006 28.3005 29.1458 -0.712411 -1.15658 17.7298 -7.51737 -6.91945 -5.7309 1.87549 5.54864 4.14134 2.67692 -90 0 0 -177.056 12.9795 -13.1612 -8.46656 -5.73263 1.6471 5.5515 2.66738 7.17988 -90 0 0
-163.532 95.8618 -8.04583 -111.902 -86.224 156.013 -6.47606 -1.18624 1.62572 7.72851 0.274731 0.62624 2.7794 1.93418e-006 1.65929e-005 -3.29389 22.8769 85.1362 -23.6412 -1.64367 -8.81964 -0.137038 2.1253 10.7701 -98.7985 -82.6934 -109.189 -179.581 5.29854 88.8951 -7.0598 -23.7435 -7.5832 0.0079403 -1.40995 0.133519 26.564 -74.8929 27.415 -23.508 4.63459e-006 -5.90926e-006 26.4215 22.0652 3.32443 -1.12354 17.4941 -7.49921 -6.92838 -5.72902 1.87428 5.58325 4.30856 2.62886 -90 0 0 -177.013 13.1159 -13.1652 -8.47909 -5.7321 1.64645 5.55154 2.632 7.15471 -90 0 0
-163.546 95.8734 -8.01464 -112.226 -86.4583 155.652 -6.43024 -1.25786 1.49176 8.30751 0.252525 0.567801 2.7794 1.93418e-006 1.65929e-005 -3.28992 22.0074 85.2861 -22.7817 -1.15992 -8.51763 -0.176588 2.32927 10.7949 -99.4633 -82.5743 -109.761 -179.449 4.52276 89.0871 -5.73649 -23.3033 -7.78939 0.00927114 -2.50413 0.105084 24.6124 -73.6437 25.3203 -23.508 4.63459e-006 -5.90926e-006 25.8282 12.1595 7.97778 -1.14855 17.615 -7.4765 -6.66017 -5.72751 1.90818 5.44268 3.9275 2.61852 -90 0 0 -177.009 13.2226 -13.1902 -8.46394 -5.73164 1.64488 5.6722 2.77179 7.17568 -90 0 0
-163.558 95.8901 -8.00293 -112.535 -86.6738 155.302 -6.4336 -1.39886 1.42989 8.7723 0.234264 0.52105 2.7794 1.93418e-006 1.65929e-005 -3.30655 21.3069 85.4891 -21.9633 -0.823724 -8.45053 -0.193687 2.41792 10.806 -100.628 -82.4976 -111.06 -179.207 3.33387 89.1145 -3.64721 -23.211 -7.61502 0.00926794 -4.03766 0.0647111 23.5483 -71.6519 24.1652 -23.508 4.63459e-006 -5.90926e-006 26.5061 2.8852 12.0566 -1.14776 17.5226 -7.4203 -6.48813 -5.72644 1.92975 5.33219 3.87552 2.51904 -90 0 0 -176.956 13.3207 -13.2184 -8.50205 -5.73127 1.64288 5.67329 2.86378 7.13255 -90 0 0
-163.567 95.9048 -7.97022 -110.774 -86.765 157.063 -6.37979 -1.67705 1.40216 9.31218 0.212585 0.466929 2.7794 1.93418e-006 1.65929e-005 -3.32534 21.1155 85.6055 -21.5144 -0.311618 -8.48154 -0.130183 2.09428 10.7661 -95.537 -82.6488 -106.101 -179.209 3.34146 89.1098 -4.0267 -22.871 -7.5338 0.00940475 -2.60797 0.102313 25.9511 -72.9845 26.5642 -23.508 4.63459e-006 -5.90926e-006 26.4613 -2.12852 14.2388 -1.07035 17.5076 -7.41148 -6.40069 -5.72574 1.94068 5.29969 3.83132 2.42813 -90 0 0 -176.862 13.3082 -13.1992 -8.50558 -5.73097 1.64094 5.65577 2.93181 7.0513 -90 0 0
-163.569 95.9053 -7.92105 -110.051 -86.627 157.8 -6.25127 -1.60228 1.37379 9.14667 0.219286 0.483493 2.7794 1.93418e-006 1.65929e-005 -3.33253 21.0989 85.6327 -21.5374 -0.525574 -8.47173 -0.10354 1.95856 10.7497 -95.1458 -82.6958 -105.713 -178.976 2.26269 88.9677 -2.03505 -23.4795 -7.20927 0.0091625 -4.25967 0.0588296 24.184 -70.6936 24.6013 -23.508 4.63459e-006 -5.90926e-006 25.7665 -2.37358 14.0065 -1.21912 17.636 -7.40028 -6.25209 -5.72527 1.95994 5.27895 3.9084 2.47322 -90 0 0 -176.872 13.2793 -13.1853 -8.51813 -5.73074 1.63895 5.63085 2.82191 6.99461 -90 0 0
